<svg xmlns="http://www.w3.org/2000/svg" xmlns:xlink="http://www.w3.org/1999/xlink" version="1.1" x="0px" y="0px" style="enable-background:new 0 0 1080 1080;" xml:space="preserve" viewBox="74.24 400.72 933.03 282">
<style type="text/css">
	.st0{fill:#FFFFFF;}
	.st1{fill:none;stroke:#FFFFFF;stroke-width:3;stroke-linecap:round;stroke-miterlimit:10;}
	.st2{fill:none;stroke:#FFFFFF;stroke-width:3;stroke-miterlimit:10;}
	.st3{fill:#FFFFFF;stroke:#FFFFFF;stroke-width:0.5;stroke-miterlimit:10;}
	.st4{fill:none;stroke:#000000;stroke-width:3;stroke-linecap:round;stroke-miterlimit:10;}
	.st5{fill:none;stroke:#000000;stroke-width:3;stroke-miterlimit:10;}
	.st6{stroke:#000000;stroke-width:0.5;stroke-miterlimit:10;}
</style>
<g id="Layer_5">
</g>
<g id="Layer_4">
</g>
<g id="Layer_3">
</g>
<g id="Layer_2">
</g>
<g id="Layer_1">
	<ellipse class="st0" cx="262.17" cy="538.07" rx="12.79" ry="19.99"/>
	<path class="st0" d="M173.46,459.58c0,0-23.33-29.06-31.36-34.58s8-13.1,31.36,17.29c0,0-27.34-34.57-14.04-36.47   c13.3-1.9,21.33,35.24,21.33,35.24s-6.53-37.82,3.01-40.24c9.54-2.42,13.05,38.23,3.01,56.81L173.46,459.58z"/>
	<polyline class="st1" points="291.29,605.37 268.61,601.74 196.69,627.05 114.69,601.74 89.56,604.76  "/>
	<path class="st2" d="M75.75,602.91c0-1.52-0.67-17.06,8.86-22.47c8.04-4.56,20.76-4.83,39.45,12.34c0,0,35.22-75.13,67.59-82.28   c0,0,27.65-1.56,70.28,79.6c0,0,27.44-21.92,43.97-7.92c6.27,5.31,3.89,6.73,3.89,17.68"/>
	<path class="st3" d="M218.9,521.11c0,0,48.91-22.02,82.24-4.52c0,0,15.77-7.71-5.86-12.89l15.37-1.57   c-1.22-0.87-15.57-8.56-43.95-4.61c-10.36,1.44-19.46,3.96-26.21,7.07c-7.82,3.6-19.18,9.99-25.15,17.42L218.9,521.11z"/>
	<path class="st3" d="M164.36,527.29c0,0-46.25-28.07-80.31-13.5c0,0-14.78-8.9,6.8-12.25l-14.9-2.8c0,0,13.7-7.7,43.38-0.98   c10.02,2.27,18.71,5.5,25.05,9.12c7.35,4.2,17.79,11.79,23.01,19.62L164.36,527.29z"/>
	<path class="st2" d="M296.33,560.58c0,0-20.44,17.49-45.56,10.14"/>
	<path class="st2" d="M89.82,561.81c0,0,20.71,16.26,45.83,8.91"/>
	<g>
		<g>
			<path class="st0" d="M358.48,611.77l73.26-106.19h18.87l-73.26,106.19H358.48z M358.48,622.69v-10.92l13.69-3.7h76.96v14.62     H358.48z M362.18,509.28v-14.62h88.43v10.92l-13.88,3.7H362.18z"/>
			<path class="st0" d="M505.19,624.54c-8.14,0-15.45-2-21.92-6.01c-6.47-4.01-11.63-9.43-15.45-16.28     c-3.82-6.85-5.74-14.58-5.74-23.22c0-8.63,1.91-16.37,5.74-23.22c3.82-6.84,8.97-12.3,15.45-16.37     c6.48-4.07,13.78-6.11,21.92-6.11c6.66,0,12.61,1.36,17.85,4.07c5.24,2.71,9.5,6.51,12.76,11.38c3.27,4.87,5.09,10.45,5.46,16.74     v26.64c-0.5,6.41-2.34,12.06-5.55,16.93c-3.21,4.87-7.43,8.67-12.67,11.38C517.8,623.18,511.85,624.54,505.19,624.54z      M507.78,609.92c8.51,0,15.35-2.87,20.54-8.6c5.18-5.73,7.77-13.16,7.77-22.29c0-6.17-1.17-11.59-3.51-16.28     c-2.34-4.69-5.67-8.35-9.99-11.01c-4.32-2.65-9.31-3.98-14.98-3.98c-5.8,0-10.92,1.33-15.36,3.98     c-4.44,2.65-7.93,6.32-10.45,11.01c-2.53,4.69-3.79,10.05-3.79,16.09c0,6.17,1.26,11.56,3.79,16.19     c2.53,4.62,6.04,8.26,10.54,10.92C496.83,608.6,501.98,609.92,507.78,609.92z M535.16,622.69v-23.5l2.96-21.46l-2.96-21.09     v-21.46h15.54v87.5H535.16z"/>
			<path class="st0" d="M564.94,614.36l53.28-70.86h18.13l-53.28,70.86H564.94z M564.94,622.69v-8.33l13.69-5.55h56.61v13.88H564.94     z M568.27,549.06v-13.88h68.08v8.32l-14.25,5.55H568.27z"/>
			<path class="st0" d="M686.3,624.54c-7.15,0-13.57-1.64-19.24-4.9c-5.67-3.27-10.08-7.77-13.23-13.5     c-3.14-5.74-4.72-12.42-4.72-20.07v-50.88h15.35v50.13c0,5.06,0.86,9.41,2.59,13.04c1.73,3.64,4.25,6.48,7.58,8.51     c3.33,2.03,7.22,3.05,11.66,3.05c6.91,0,12.3-2.19,16.19-6.57c3.88-4.38,5.83-10.39,5.83-18.04v-50.13h15.36v50.88     c0,7.65-1.57,14.37-4.72,20.17c-3.14,5.8-7.52,10.3-13.13,13.5C700.2,622.93,693.7,624.54,686.3,624.54z"/>
			<path class="st0" d="M746.24,622.69V494.67h16.09v128.02H746.24z M756.78,622.69v-14.06h39.41c7.77,0,13.88-2.25,18.31-6.75     c4.44-4.5,6.66-9.96,6.66-16.37c0-4.32-0.99-8.23-2.96-11.75c-1.97-3.51-4.78-6.29-8.42-8.33c-3.64-2.04-7.93-3.05-12.86-3.05     h-40.15V548.5h37.74c6.41,0,11.53-1.73,15.35-5.18c3.82-3.45,5.74-8.39,5.74-14.8c0-6.29-2.01-11.16-6.01-14.62     c-4.01-3.45-9.34-5.18-16-5.18h-36.82v-14.06h37.18c8.14,0,15.01,1.48,20.63,4.44c5.61,2.96,9.87,6.88,12.76,11.75     c2.9,4.87,4.35,10.33,4.35,16.37c0,7.03-1.88,13.11-5.64,18.22c-3.76,5.12-9.22,9.1-16.37,11.93l1.29-4.99     c8.26,2.84,14.71,7.21,19.33,13.13s6.94,12.95,6.94,21.09c0,6.78-1.64,12.89-4.9,18.32c-3.27,5.43-8.05,9.74-14.34,12.95     c-6.29,3.21-13.88,4.81-22.75,4.81H756.78z"/>
			<path class="st0" d="M895.16,624.54c-8.51,0-16.22-2.04-23.12-6.1c-6.91-4.07-12.37-9.59-16.37-16.56     c-4.01-6.97-6.01-14.71-6.01-23.22s2-16.19,6.01-23.03c4.01-6.85,9.46-12.27,16.37-16.28c6.91-4.01,14.61-6.01,23.12-6.01     c8.51,0,16.22,2.01,23.12,6.01c6.91,4.01,12.39,9.43,16.46,16.28c4.07,6.84,6.1,14.52,6.1,23.03c0,8.63-2.04,16.4-6.1,23.31     c-4.07,6.91-9.56,12.4-16.46,16.47C911.38,622.5,903.67,624.54,895.16,624.54z M895.16,609.74c5.79,0,10.94-1.32,15.45-3.98     c4.5-2.65,8.02-6.35,10.54-11.1c2.53-4.75,3.79-10.08,3.79-16s-1.29-11.16-3.88-15.72c-2.59-4.56-6.1-8.17-10.54-10.82     c-4.44-2.65-9.56-3.98-15.35-3.98c-5.67,0-10.76,1.33-15.26,3.98c-4.5,2.65-8.05,6.26-10.64,10.82     c-2.59,4.56-3.88,9.8-3.88,15.72c0,6.04,1.29,11.41,3.88,16.09c2.59,4.69,6.13,8.36,10.64,11.01     C884.4,608.41,889.49,609.74,895.16,609.74z"/>
			<path class="st0" d="M948.44,549.06v-13.88h58.83v13.88H948.44z M970.09,622.69V498.37h15.54v124.32H970.09z"/>
		</g>
	</g>
	<path class="st2" d="M89.67,577.52V476.03c0-14.02,11.36-18.42,25.38-18.42h156.31c14.02,0,25.38,4.4,25.38,18.42v100.34"/>
	<path class="st1" d="M108.93,642.82c-18.08-0.87-32.74-11.03-32.74-23.56l-0.44-17.21"/>
	<path class="st1" d="M309.8,598.56l-0.77,18.95c0,12.53-14.66,22.69-32.74,23.56l-131.36,0.12"/>
	<polyline class="st1" points="108.81,642.93 109.68,681.22 144.49,641.19  "/>
	<ellipse class="st0" cx="122.72" cy="537.73" rx="12.79" ry="19.99"/>
</g>
</svg>